<svg xmlns="http://www.w3.org/2000/svg" version="1.1" xmlns:xlink="http://www.w3.org/1999/xlink" xmlns:svgjs="http://svgjs.dev/svgjs" width="1000" height="1000" viewBox="0 0 1000 1000"><rect width="1000" height="1000" fill="#010536"></rect><g transform="matrix(0.7,0,0,0.7,149.57575757575756,282.1265587044535)"><svg viewBox="0 0 396 247" data-background-color="#010536" preserveAspectRatio="xMidYMid meet" height="623" width="1000" xmlns="http://www.w3.org/2000/svg" xmlns:xlink="http://www.w3.org/1999/xlink"><g id="tight-bounds" transform="matrix(1,0,0,1,0.2400000000000091,-0.09999999999999432)"><svg viewBox="0 0 395.52 247.2" height="247.2" width="395.52"><g><svg></svg></g><g><svg viewBox="0 0 395.52 247.2" height="247.2" width="395.52"><mask id="38ff04b6-4f0a-4531-b274-bec9adeeb0bc"><rect width="395.52" height="247.2" fill="white"></rect><g transform="matrix(1,0,0,1,30.131451681041426,37.08)" id="clone"><svg viewBox="0 0 335.25709663791713 173.04" height="173.04" width="335.25709663791713"><g><svg viewBox="0 0 335.25709663791713 173.04" height="173.04" width="335.25709663791713"><g><svg viewBox="0 0 395.52000000000004 204.14416722673317" height="173.04" width="335.25709663791713"><g><svg viewBox="0 0 395.52000000000004 204.14416722673317" height="204.14416722673317" width="395.52000000000004"><g id="SvgjsG1483"><svg viewBox="0 0 395.52000000000004 204.14416722673317" height="204.14416722673317" width="395.52000000000004" id="SvgjsSvg1482"><g><svg viewBox="0 0 395.52000000000004 121.0725187032419" height="121.0725187032419" width="395.52000000000004"><g transform="matrix(1,0,0,1,0,0)"><svg width="395.52000000000004" viewBox="-1.2999999523162842 -40.95000076293945 161.3800048828125 50.10000228881836" height="121.0725187032419" data-palette-color="#fbfbf8"><path d="M8.75 0.45L8.55 0.4Q7.95 0.25 8 0.25L8 0.25Q7.1-3.45 6-10.8L6-10.8 3.25-28.65 2.8-30.85Q1.7-35.15 1.7-36.9L1.7-36.9Q1.7-37.25 1.93-37.52 2.15-37.8 2.4-37.8L2.4-37.8Q2.55-37.8 2.75-37.7L2.75-37.7Q3-37.6 3.2-37.15L3.2-37.15Q3.4-36.75 3.4-36.4L3.4-36.4 3.5-35.7 4.2-31.85 4.65-29.2 7.15-12.05 7.8-7.3Q8.2-4.9 8.45-2.75L8.45-2.75 8.8-6.3 9.35-12.05 10.55-23Q11-27.65 11.2-29.1L11.2-29.1 11.45-31.7 11.8-34.2Q12.05-35.7 12.15-37L12.15-37Q12.25-37.95 13.1-37.95L13.1-37.95 13.4-37.75 13.3-37.75 13.8-37.35Q13.8-35.9 13.4-33.1L13.4-33.1 13.1-31.15 12.95-29.9Q12.3-24.45 12.15-23.1L12.15-23.1Q11.4-16.75 10.58-9.35 9.75-1.95 9.7-0.65L9.7-0.65Q9.3 0.45 8.75 0.45L8.75 0.45ZM8.35-2.45L8.5-2.45 8.45-2.6 8.35-2.45ZM28.7 0.45Q27.95 0.45 27.75 0.28 27.55 0.1 27.45-0.65L27.45-0.65Q27-4.3 26.9-5.2L26.9-5.2 26.65-7.2Q25.55-7.45 24.15-7.45L24.15-7.45 22.35-7.55Q21.15-7.7 20.6-7.7L20.6-7.7Q20.3-7.7 20.25-7.45L20.25-7.45Q20.25-7.3 20.2-7.3L20.2-7.3 20.1-6.3Q20.05-5.4 19.55-2.7L19.55-2.7Q19.3-1.35 18.95-0.6L18.95-0.6Q18.55 0.25 18.2 0.25L18.2 0.25Q17.9 0.25 17.55-0.03 17.2-0.3 17.2-0.6L17.2-0.6 17.25-0.75 17.3-0.9Q18.2-4.45 18.8-7.95L18.8-7.95 19.4-11.05 20-14.85Q20-14.85 20.55-18.15L20.55-18.15Q20.8-19.5 21.45-22.5L21.45-22.5Q22.15-25.9 22.3-27.15L22.3-27.15Q22.35-27.3 22.5-29L22.5-29Q22.7-30.9 22.85-31.8L22.85-31.8Q23-33.1 23.15-33.3L23.15-33.3 23.5-33.3Q23.65-33.25 23.85-33.25L23.85-33.25Q24.45-33.25 24.75-33.55L24.75-33.55Q25.1-33.55 25.37-33.33 25.65-33.1 25.65-32.8L25.65-32.8Q25.65-30.4 26-27.3L26-27.3Q26.2-25.7 26.3-24.65L26.3-24.65Q26.85-18.2 29.1-0.45L29.1-0.45 29.1-0.3Q29.1 0.2 28.7 0.45L28.7 0.45ZM25.9-8.55L26.4-8.55Q25.9-15.75 24.5-29.8L24.5-29.8 21.8-16.45Q20.65-10.7 20.65-9.2L20.65-9.2Q20.65-8.95 22.55-8.75 24.45-8.55 25.9-8.55L25.9-8.55ZM47.25 0.2Q46.84 0.2 46.67-0.1 46.5-0.4 46.34-1L46.34-1Q46.3-1.4 46.14-1.7L46.14-1.7 46.2-1.85Q45.8-4.2 44.5-7.6L44.5-7.6 43.59-10.2Q43.5-10.3 42.64-12.75L42.64-12.75 42.25-13.95Q37.74-27.85 36.59-29L36.59-29Q36.2-27.65 36.2-25.5L36.2-25.5Q36.2-24.35 36.24-23.5L36.24-23.5 36.3-21.55 36.24-20.35Q36.2-19.8 36.2-19.15L36.2-19.15Q36.2-18.05 36.3-17.25L36.3-17.25Q36.39-15.65 36.39-15.65L36.39-15.65 36.24-15.65Q36.24-7.3 36.59-6.45L36.59-6.45 36.59-1.95Q36.8-1.55 36.8-0.9L36.8-0.9Q36.8-0.5 36.52-0.2 36.24 0.1 35.84 0.1L35.84 0.1Q34.8 0.1 34.8-2.6L34.8-2.6 34.89-4.2Q34.99-4.95 34.99-5.85L34.99-5.85Q34.99-8.25 34.84-13.05L34.84-13.05Q34.7-17.85 34.7-20.25L34.7-20.25Q34.7-21.7 34.84-24.7L34.84-24.7Q34.99-27.65 34.99-29.1L34.99-29.1 34.99-29.75Q34.99-32.2 35.89-32.95L35.89-32.95 36.05-32.8 36.55-32.9Q36.74-32.85 36.99-32.6L36.99-32.6Q37.2-32.4 37.2-32.15L37.2-32.15 37.3-31.85Q37.3-31.75 37.32-31.68 37.34-31.6 37.34-31.6L37.34-31.6Q38.14-28.05 40.95-21.65L40.95-21.65Q43.8-14.9 44.5-12.7L44.5-12.7Q45-10.95 45.3-9.6L45.3-9.6Q46.25-5.35 47.55-3.05L47.55-3.05 47.64-3.2Q48.8-14.3 48.8-30.45L48.8-30.45 48.75-31.05Q48.7-31.3 48.7-31.7L48.7-31.7Q48.7-32.75 49.39-32.75L49.39-32.75Q49.84-32.75 50.17-32.3 50.5-31.85 50.5-31.3L50.5-31.3 50.5-27.95 50.25-27.55Q50.25-22.8 49.7-11.95 49.14-1.1 48.64-0.15L48.64-0.15 47.8 0.05 47.8 0.1 47.75 0.05 47.25 0.2ZM58.44 0.25Q58.04 0.25 58.04-1.1L58.04-1.1Q57.84-4.55 57.84-9.8L57.84-9.8Q57.84-13.1 57.89-15.7L57.89-15.7 57.94-21.6Q57.94-25.4 57.74-31L57.74-31Q57.29-31.4 57.29-32L57.29-32Q57.29-32.35 57.72-32.73 58.14-33.1 58.49-33.1L58.49-33.1Q58.89-33.1 59.24-32.7L59.24-32.7 59.79-32.25Q60.09-32.1 60.94-31.95L60.94-31.95Q61.79-31.8 62.14-31.65L62.14-31.65Q62.89-31.25 64.14-30.1L64.14-30.1Q65.34-28.9 65.79-28.6L65.79-28.6 65.74-28.5Q65.79-28.2 66.49-27.2L66.49-27.2Q67.04-26.45 67.39-25.8L67.39-25.8Q68.19-23.5 68.19-19.85L68.19-19.85Q68.19-19.2 68.14-18.7L68.14-18.7 68.14-17.5 68.14-17.1 68.09-16.6Q68.09-15.65 68.39-15.1L68.39-15.1Q68.09-13.5 67.64-9.05L67.64-9.05Q67.49-7.75 67.14-6.3 66.79-4.85 66.29-3.9L66.29-3.9Q64.99-1.45 61.94 0.25L61.94 0.25 58.44 0.25ZM60.19-1.2L61.74-1.2Q62.09-1.6 62.39-1.85L62.39-1.85Q62.39-1.85 62.74-2.1L62.74-2.1 63.14-2.45Q66.64-5.6 66.64-14.45L66.64-14.45 66.64-15.4Q66.59-15.8 66.59-16.25L66.59-16.25 66.39-21.3Q66.24-24.2 64.64-27.3L64.64-27.3Q63.89-28.85 62.62-29.83 61.34-30.8 59.94-30.8L59.94-30.8Q59.34-30.8 59.34-21.55L59.34-21.55Q59.34-10.85 59.94-2.9L59.94-2.9 59.89-1.95 60.09-1.85 60.19-1.2ZM72.84 6.15L71.69 5 71.69 4.9 71.64 4.8Q71.64 4.65 72.49 4.1L72.49 4.1Q73.29 3.5 74.29 2.9L74.29 2.9Q75.39 2.15 75.44 2.05L75.44 2.05Q76.19 1.2 76.62-0.63 77.04-2.45 77.04-4.2L77.04-4.2Q77.04-9.55 76.84-17.5L76.84-17.5Q76.59-24.9 76.59-30.75L76.59-30.75 76.29-31.3Q75.94-31.4 75.09-31.55L75.09-31.55Q74.14-31.6 73.39-31.95L73.39-31.95Q72.64-32.2 72.64-32.6L72.64-32.6Q72.64-32.8 73.04-33 73.44-33.2 73.69-33.2L73.69-33.2Q74.64-33.2 76.72-32.85 78.79-32.5 80.42-32 82.04-31.5 82.04-31.1L82.04-31.1Q82.04-30.8 81.82-30.63 81.59-30.45 81.24-30.45L81.24-30.45Q80.89-30.45 79.89-30.7L79.89-30.7Q79.14-30.95 78.54-30.95L78.54-30.95Q78.09-30.95 78.09-29.95L78.09-29.95Q78.09-27.2 78.34-19.55L78.34-19.55Q78.59-13.8 78.59-9.2L78.59-9.2 78.59-3.7Q78.29-3.05 78.29-1.6L78.29-1.6Q78.29 0.5 77.09 3.15L77.09 3.15Q76.44 4.5 75.42 5.33 74.39 6.15 73.19 6.15L73.19 6.15 72.84 6.15ZM96.74 0.45Q95.99 0.45 95.79 0.28 95.59 0.1 95.49-0.65L95.49-0.65Q95.04-4.3 94.94-5.2L94.94-5.2 94.69-7.2Q93.59-7.45 92.19-7.45L92.19-7.45 90.39-7.55Q89.19-7.7 88.64-7.7L88.64-7.7Q88.34-7.7 88.29-7.45L88.29-7.45Q88.29-7.3 88.24-7.3L88.24-7.3 88.14-6.3Q88.09-5.4 87.59-2.7L87.59-2.7Q87.34-1.35 86.99-0.6L86.99-0.6Q86.59 0.25 86.24 0.25L86.24 0.25Q85.94 0.25 85.59-0.03 85.24-0.3 85.24-0.6L85.24-0.6 85.29-0.75 85.34-0.9Q86.24-4.45 86.84-7.95L86.84-7.95 87.44-11.05 88.04-14.85Q88.04-14.85 88.59-18.15L88.59-18.15Q88.84-19.5 89.49-22.5L89.49-22.5Q90.19-25.9 90.34-27.15L90.34-27.15Q90.39-27.3 90.54-29L90.54-29Q90.74-30.9 90.89-31.8L90.89-31.8Q91.04-33.1 91.19-33.3L91.19-33.3 91.54-33.3Q91.69-33.25 91.89-33.25L91.89-33.25Q92.49-33.25 92.79-33.55L92.79-33.55Q93.14-33.55 93.41-33.33 93.69-33.1 93.69-32.8L93.69-32.8Q93.69-30.4 94.04-27.3L94.04-27.3Q94.24-25.7 94.34-24.65L94.34-24.65Q94.89-18.2 97.14-0.45L97.14-0.45 97.14-0.3Q97.14 0.2 96.74 0.45L96.74 0.45ZM93.94-8.55L94.44-8.55Q93.94-15.75 92.54-29.8L92.54-29.8 89.84-16.45Q88.69-10.7 88.69-9.2L88.69-9.2Q88.69-8.95 90.59-8.75 92.49-8.55 93.94-8.55L93.94-8.55ZM103.44 0.65Q102.74 0.65 102.59-0.5L102.59-0.5Q102.69-0.8 102.69-2.15L102.69-2.15Q102.69-6.75 102.84-15.8L102.84-15.8Q102.99-24.8 102.99-28.8L102.99-28.8 103.09-30.6 103.24-32.1Q103.24-32.45 103.59-32.45L103.59-32.45Q103.84-32.45 104.29-32.3L104.29-32.3 104.44-32.25Q104.44-31.15 104.39-30.25L104.39-30.25 104.39-28.3 104.39-22.85Q104.44-20.45 104.44-17.4L104.44-17.4Q104.39-17.15 104.39-16.3L104.39-16.3 104.34-15.25Q104.29-14.25 104.29-13.2L104.29-13.2Q104.29-12.05 104.34-11.1L104.34-11.1 104.39-8.95 104.24-8.55 104.29-8.6Q104.29-8.45 104.24-8.4L104.24-8.4 104.24-8.2Q104.24-7.8 104.39-7.5L104.39-7.5 104.24-2.7 104.24-2.4Q104.24-1.55 104.29-1.4L104.29-1.4Q104.29-1.15 104.54-1.15L104.54-1.15 107.14-1.05Q108.29-1.05 108.71-1.03 109.14-1 109.24-1L109.24-1 109.39-1Q109.64-1 109.89-0.73 110.14-0.45 110.14-0.15L110.14-0.15Q110.14 0.45 109.34 0.5L109.34 0.5Q108.49 0.45 105.19 0.45L105.19 0.45 105.29 0.5Q104.79 0.5 104.34 0.55L104.34 0.55Q103.94 0.65 103.44 0.65L103.44 0.65ZM117.68 0Q116.53 0 116.33-0.5L116.33-0.5Q116.08-0.5 115.93-0.45L115.93-0.45 115.53-0.45Q114.43-0.45 114.13-0.95L114.13-0.95Q114.13-1.3 114.53-1.55L114.53-1.55 114.78-1.8 116.23-1.8 116.43-2 116.53-2.45 116.58-3.05Q116.58-6.1 116.43-8.5L116.43-8.5 116.33-10.35 116.23-14Q116.23-15.95 116.38-19.85L116.38-19.85 116.48-25.65Q116.48-29.45 116.23-31.45L116.23-31.45Q115.78-31.6 114.73-31.6L114.73-31.6 114.18-31.55Q113.88-31.5 113.53-31.5L113.53-31.5Q112.58-31.5 112.58-32.35L112.58-32.35Q112.58-32.55 113.03-32.75 113.48-32.95 113.78-32.95L113.78-32.95Q115.68-32.95 117.58-32.75L117.58-32.75Q118.73-32.7 119.88-32.3L119.88-32.3Q120.78-32 120.78-31.45L120.78-31.45Q120.78-31.35 120.63-31.05L120.63-31.05 119.48-30.95Q119.13-31.25 118.03-31.25L118.03-31.25 117.78-31.1Q117.93-30.65 117.93-28.45L117.93-28.45Q117.93-25.15 117.88-22.5L117.88-22.5 117.78-16.55Q117.78-14.3 117.98-11.1L117.98-11.1Q118.13-7.45 118.13-5.6L118.13-5.6 118.13-4.95Q118.08-4.6 118.08-4.05L118.08-4.05Q118.08-2.9 118.23-2.65L118.23-2.65 118.18-2.55Q118.18-2.05 119.28-2.05L119.28-2.05Q119.73-2.05 120.03-2.1L120.03-2.1 120.78-2.1Q122.23-2.1 122.23-1.4L122.23-1.4Q122.23-0.95 121.93-0.68 121.63-0.4 121.13-0.4L121.13-0.4Q120.68-0.4 120.33-0.5L120.33-0.5Q119.93-0.55 119.48-0.55L119.48-0.55Q119.18-0.55 118.58-0.3L118.58-0.3Q117.98 0 117.68 0L117.68 0ZM139.58 0.2Q139.18 0.2 139.01-0.1 138.83-0.4 138.68-1L138.68-1Q138.63-1.4 138.48-1.7L138.48-1.7 138.53-1.85Q138.13-4.2 136.83-7.6L136.83-7.6 135.93-10.2Q135.83-10.3 134.98-12.75L134.98-12.75 134.58-13.95Q130.08-27.85 128.93-29L128.93-29Q128.53-27.65 128.53-25.5L128.53-25.5Q128.53-24.35 128.58-23.5L128.58-23.5 128.63-21.55 128.58-20.35Q128.53-19.8 128.53-19.15L128.53-19.15Q128.53-18.05 128.63-17.25L128.63-17.25Q128.73-15.65 128.73-15.65L128.73-15.65 128.58-15.65Q128.58-7.3 128.93-6.45L128.93-6.45 128.93-1.95Q129.13-1.55 129.13-0.9L129.13-0.9Q129.13-0.5 128.86-0.2 128.58 0.1 128.18 0.1L128.18 0.1Q127.13 0.1 127.13-2.6L127.13-2.6 127.23-4.2Q127.33-4.95 127.33-5.85L127.33-5.85Q127.33-8.25 127.18-13.05L127.18-13.05Q127.03-17.85 127.03-20.25L127.03-20.25Q127.03-21.7 127.18-24.7L127.18-24.7Q127.33-27.65 127.33-29.1L127.33-29.1 127.33-29.75Q127.33-32.2 128.23-32.95L128.23-32.95 128.38-32.8 128.88-32.9Q129.08-32.85 129.33-32.6L129.33-32.6Q129.53-32.4 129.53-32.15L129.53-32.15 129.63-31.85Q129.63-31.75 129.66-31.68 129.68-31.6 129.68-31.6L129.68-31.6Q130.48-28.05 133.28-21.65L133.28-21.65Q136.13-14.9 136.83-12.7L136.83-12.7Q137.33-10.95 137.63-9.6L137.63-9.6Q138.58-5.35 139.88-3.05L139.88-3.05 139.98-3.2Q141.13-14.3 141.13-30.45L141.13-30.45 141.08-31.05Q141.03-31.3 141.03-31.7L141.03-31.7Q141.03-32.75 141.73-32.75L141.73-32.75Q142.18-32.75 142.51-32.3 142.83-31.85 142.83-31.3L142.83-31.3 142.83-27.95 142.58-27.55Q142.58-22.8 142.03-11.95 141.48-1.1 140.98-0.15L140.98-0.15 140.13 0.05 140.13 0.1 140.08 0.05 139.58 0.2ZM150.78 0.65Q149.88 0.65 149.78-0.4L149.78-0.4 149.78-1.05Q149.83-1.3 149.83-1.65L149.83-1.65 149.63-1.85Q150.03-2.9 150.03-3.9L150.03-3.9Q150.03-5.05 149.88-7.2L149.88-7.2 149.78-10.5Q149.78-13 149.93-18L149.93-18Q150.13-22.45 150.13-25.55L150.13-25.55 150.03-28.55Q149.93-29.9 149.93-31.55L149.93-31.55Q149.93-32.3 150.28-32.63 150.63-32.95 151.38-32.95L151.38-32.95Q151.88-32.95 152.18-32.65L152.18-32.65Q152.28-32.6 153.63-32.45L153.63-32.45Q154.88-32.3 155.78-32L155.78-32Q156.73-31.7 156.73-31.25L156.73-31.25Q156.73-30.75 155.78-30.25L155.78-30.25Q152.93-31.2 151.73-31.2L151.73-31.2 151.48-30.9Q151.53-30.45 151.53-28.75L151.53-28.75Q151.53-26.6 151.43-24.9L151.43-24.9Q151.38-23.15 151.38-21L151.38-21Q151.38-19.6 152.08-19.6L152.08-19.6 152.88-19.65Q153.28-19.7 153.73-19.7L153.73-19.7Q155.68-19.7 155.68-18.8L155.68-18.8Q155.68-18.25 155.43-17.88 155.18-17.5 154.68-17.5L154.68-17.5Q153.93-17.5 153.53-17.9L153.53-17.9 151.93-18.15 151.68-18.15 151.43-17.9 151.43-17.75Q151.53-16.9 151.53-13.8L151.53-13.8Q151.53-11.85 151.48-10.25L151.48-10.25 151.43-6.7Q151.43-4.75 151.58-2.7L151.58-2.7Q151.63-1.55 152.08-1.18 152.53-0.8 153.73-0.8L153.73-0.8 154.63-0.85Q155.08-0.9 155.63-0.9L155.63-0.9Q157.08-0.9 157.08-0.25L157.08-0.25Q157.08 0.65 154.88 0.65L154.88 0.65 150.78 0.65Z" opacity="1" transform="matrix(1,0,0,1,0,0)" fill="black" class="wordmark-text-0" id="SvgjsPath1481" stroke-width="5" stroke="black" stroke-linejoin="round"></path></svg></g></svg></g><g transform="matrix(1,0,0,1,2.5,136.94078208957606)"><svg viewBox="0 0 390.52000000000004 67.20338513715711" height="67.20338513715711" width="390.52000000000004"><g transform="matrix(1,0,0,1,0,0)"><svg width="390.52000000000004" viewBox="-1.7999999523162842 -38.900001525878906 306.67999267578125 53.05000305175781" height="67.20338513715711" data-palette-color="#fbfbf8"><path d="M15.95-3.4L23.9-34.6 27.9-34.6 18.85 0 10.25 0 1.2-34.6 5.2-34.6 13.15-3.4 15.95-3.4ZM81.14-17.45L81.14-17.45 81.14-4.65Q81.29-2.8 84.04-2.45L84.04-2.45 83.89 0.5Q79.94 0.5 77.94-1.5L77.94-1.5Q73.44 0.5 68.94 0.5L68.94 0.5Q65.49 0.5 63.69-1.45 61.89-3.4 61.89-7.05 61.89-10.7 63.74-12.43 65.59-14.15 69.54-14.55L69.54-14.55 77.39-15.3 77.39-17.45Q77.39-20 76.29-21.1 75.19-22.2 73.29-22.2L73.29-22.2Q69.29-22.2 64.99-21.7L64.99-21.7 63.44-21.55 63.29-24.4Q68.79-25.5 73.04-25.5 77.29-25.5 79.21-23.55 81.14-21.6 81.14-17.45ZM65.74-7.25L65.74-7.25Q65.74-2.65 69.54-2.65L69.54-2.65Q72.94-2.65 76.24-3.8L76.24-3.8 77.39-4.2 77.39-12.45 69.99-11.75Q67.74-11.55 66.74-10.45 65.74-9.35 65.74-7.25ZM124.42-20.3L124.42 0 120.67 0 120.67-25 124.37-25 124.37-23.25Q128.42-25.5 132.12-25.5L132.12-25.5Q137.12-25.5 138.85-22.8 140.57-20.1 140.57-13.2L140.57-13.2 140.57 0 136.87 0 136.87-13.1Q136.87-18.3 135.85-20.23 134.82-22.15 131.47-22.15L131.47-22.15Q129.87-22.15 128.1-21.68 126.32-21.2 125.37-20.75L125.37-20.75 124.42-20.3ZM195.16-35.9L198.86-35.9 198.86 0 195.16 0 195.16-1.7Q191.31 0.5 187.56 0.5L187.56 0.5Q185.56 0.5 184.06 0 182.56-0.5 181.26-1.8L181.26-1.8Q178.56-4.5 178.56-11.78 178.56-19.05 180.98-22.28 183.41-25.5 189.01-25.5L189.01-25.5Q191.91-25.5 195.16-24.85L195.16-24.85 195.16-35.9ZM184.16-4.5Q184.96-3.55 185.86-3.2 186.76-2.85 188.18-2.85 189.61-2.85 191.38-3.33 193.16-3.8 194.16-4.25L194.16-4.25 195.16-4.7 195.16-21.65Q191.96-22.25 189.21-22.25L189.21-22.25Q185.41-22.25 183.91-19.83 182.41-17.4 182.41-12.3L182.41-12.3Q182.41-6.5 184.16-4.5L184.16-4.5ZM238.29-0.65L238.29-0.65 238.29-25 241.99-25 241.99-0.6Q241.99 4 240.34 6.3 238.69 8.6 233.69 11.15L233.69 11.15 232.19 8.25Q236.09 6 237.19 4.42 238.29 2.85 238.29-0.65ZM241.99-30.65L238.29-30.65 238.29-35 241.99-35 241.99-30.65ZM298.98-17.45L298.98-17.45 298.98-4.65Q299.13-2.8 301.88-2.45L301.88-2.45 301.73 0.5Q297.78 0.5 295.78-1.5L295.78-1.5Q291.28 0.5 286.78 0.5L286.78 0.5Q283.33 0.5 281.53-1.45 279.73-3.4 279.73-7.05 279.73-10.7 281.58-12.43 283.43-14.15 287.38-14.55L287.38-14.55 295.23-15.3 295.23-17.45Q295.23-20 294.13-21.1 293.03-22.2 291.13-22.2L291.13-22.2Q287.13-22.2 282.83-21.7L282.83-21.7 281.28-21.55 281.13-24.4Q286.63-25.5 290.88-25.5 295.13-25.5 297.05-23.55 298.98-21.6 298.98-17.45ZM283.58-7.25L283.58-7.25Q283.58-2.65 287.38-2.65L287.38-2.65Q290.78-2.65 294.08-3.8L294.08-3.8 295.23-4.2 295.23-12.45 287.83-11.75Q285.58-11.55 284.58-10.45 283.58-9.35 283.58-7.25Z" opacity="1" transform="matrix(1,0,0,1,0,0)" fill="black" class="slogan-text-1" id="SvgjsPath1480" stroke-width="5" stroke="black" stroke-linejoin="round"></path></svg></g></svg></g></svg></g></svg></g></svg></g></svg></g></svg></g></mask><g mask="url(#38ff04b6-4f0a-4531-b274-bec9adeeb0bc)"><g><path xmlns="http://www.w3.org/2000/svg" d="M204.197 247.2l-1.287-0.322c-2.575-0.644-3.755-0.966-3.541-0.966v0c-3.862-15.879-8.154-39.591-12.875-71.134v0l-17.703-114.909-2.897-14.163c-4.721-18.454-7.081-31.436-7.081-38.947v0c0-1.502 0.494-2.833 1.481-3.991 0.944-1.202 1.953-1.802 3.025-1.802v0c0.644 0 1.395 0.215 2.254 0.643v0c1.073 0.429 2.039 1.609 2.896 3.541v0c0.858 1.717 1.288 3.326 1.288 4.828v0l0.644 4.506 4.506 24.785 2.897 17.059 16.093 110.403 4.185 30.578c1.717 10.3 3.111 20.064 4.184 29.291v0l2.253-22.853 3.541-37.016 7.725-70.49c1.931-19.956 3.326-33.046 4.184-39.269v0l1.61-16.738 2.253-16.093c1.073-6.438 1.824-12.446 2.253-18.025v0c0.429-4.077 2.468-6.116 6.116-6.116v0l1.931 1.288h-0.644l3.219 2.575c0 6.223-0.858 15.343-2.575 27.359v0l-1.931 12.553-0.966 8.047c-2.79 23.39-4.506 37.981-5.15 43.775v0c-3.219 27.252-6.588 56.757-10.107 88.516-3.562 31.758-5.45 50.427-5.665 56.006v0c-1.717 4.721-3.755 7.081-6.116 7.081zM201.623 228.531h0.965l-0.322-0.965z" fill="#fbfbf8" fill-rule="nonzero" stroke="none" stroke-width="1" stroke-linecap="butt" stroke-linejoin="miter" stroke-miterlimit="10" stroke-dasharray="" stroke-dashoffset="0" font-family="none" font-weight="none" font-size="none" text-anchor="none" style="mix-blend-mode: normal" data-fill-palette-color="tertiary"></path></g></g><g transform="matrix(1,0,0,1,30.131451681041426,37.08)"><svg viewBox="0 0 335.25709663791713 173.04" height="173.04" width="335.25709663791713"><g><svg viewBox="0 0 335.25709663791713 173.04" height="173.04" width="335.25709663791713"><g><svg viewBox="0 0 395.52000000000004 204.14416722673317" height="173.04" width="335.25709663791713"><g><svg viewBox="0 0 395.52000000000004 204.14416722673317" height="204.14416722673317" width="395.52000000000004"><g id="textblocktransform"><svg viewBox="0 0 395.52000000000004 204.14416722673317" height="204.14416722673317" width="395.52000000000004" id="textblock"><g><svg viewBox="0 0 395.52000000000004 121.0725187032419" height="121.0725187032419" width="395.52000000000004"><g transform="matrix(1,0,0,1,0,0)"><svg width="395.52000000000004" viewBox="-1.2999999523162842 -40.95000076293945 161.3800048828125 50.10000228881836" height="121.0725187032419" data-palette-color="#fbfbf8"><path d="M8.75 0.45L8.55 0.4Q7.95 0.25 8 0.25L8 0.25Q7.1-3.45 6-10.8L6-10.8 3.25-28.65 2.8-30.85Q1.7-35.15 1.7-36.9L1.7-36.9Q1.7-37.25 1.93-37.52 2.15-37.8 2.4-37.8L2.4-37.8Q2.55-37.8 2.75-37.7L2.75-37.7Q3-37.6 3.2-37.15L3.2-37.15Q3.4-36.75 3.4-36.4L3.4-36.4 3.5-35.7 4.2-31.85 4.65-29.2 7.15-12.05 7.8-7.3Q8.2-4.9 8.45-2.75L8.45-2.75 8.8-6.3 9.35-12.05 10.55-23Q11-27.65 11.2-29.1L11.2-29.1 11.45-31.7 11.8-34.2Q12.05-35.7 12.15-37L12.15-37Q12.25-37.95 13.1-37.95L13.1-37.95 13.4-37.75 13.3-37.75 13.8-37.35Q13.8-35.9 13.4-33.1L13.4-33.1 13.1-31.15 12.95-29.9Q12.3-24.45 12.15-23.1L12.15-23.1Q11.4-16.75 10.58-9.35 9.75-1.95 9.7-0.65L9.7-0.65Q9.3 0.45 8.75 0.45L8.75 0.45ZM8.35-2.45L8.5-2.45 8.45-2.6 8.35-2.45ZM28.7 0.45Q27.95 0.45 27.75 0.28 27.55 0.1 27.45-0.65L27.45-0.65Q27-4.3 26.9-5.2L26.9-5.2 26.65-7.2Q25.55-7.45 24.15-7.45L24.15-7.45 22.35-7.55Q21.15-7.7 20.6-7.7L20.6-7.7Q20.3-7.7 20.25-7.45L20.25-7.45Q20.25-7.3 20.2-7.3L20.2-7.3 20.1-6.3Q20.05-5.4 19.55-2.7L19.55-2.7Q19.3-1.35 18.95-0.6L18.95-0.6Q18.55 0.25 18.2 0.25L18.2 0.25Q17.9 0.25 17.55-0.03 17.2-0.3 17.2-0.6L17.2-0.6 17.25-0.75 17.3-0.9Q18.2-4.45 18.8-7.95L18.8-7.95 19.4-11.05 20-14.85Q20-14.85 20.55-18.15L20.55-18.15Q20.8-19.5 21.45-22.5L21.45-22.5Q22.15-25.9 22.3-27.15L22.3-27.15Q22.35-27.3 22.5-29L22.5-29Q22.7-30.9 22.85-31.8L22.85-31.8Q23-33.1 23.15-33.3L23.15-33.3 23.5-33.3Q23.65-33.25 23.85-33.25L23.85-33.25Q24.45-33.25 24.75-33.55L24.75-33.55Q25.1-33.55 25.37-33.33 25.65-33.1 25.65-32.8L25.65-32.8Q25.65-30.4 26-27.3L26-27.3Q26.2-25.7 26.3-24.65L26.3-24.65Q26.85-18.2 29.1-0.45L29.1-0.45 29.1-0.3Q29.1 0.2 28.7 0.45L28.7 0.45ZM25.9-8.55L26.4-8.55Q25.9-15.75 24.5-29.8L24.5-29.8 21.8-16.45Q20.65-10.7 20.65-9.2L20.65-9.2Q20.65-8.95 22.55-8.75 24.45-8.55 25.9-8.55L25.9-8.55ZM47.25 0.2Q46.84 0.2 46.67-0.1 46.5-0.4 46.34-1L46.34-1Q46.3-1.4 46.14-1.7L46.14-1.7 46.2-1.85Q45.8-4.2 44.5-7.6L44.5-7.6 43.59-10.2Q43.5-10.3 42.64-12.75L42.64-12.75 42.25-13.95Q37.74-27.85 36.59-29L36.59-29Q36.2-27.65 36.2-25.5L36.2-25.5Q36.2-24.35 36.24-23.5L36.24-23.5 36.3-21.55 36.24-20.35Q36.2-19.8 36.2-19.15L36.2-19.15Q36.2-18.05 36.3-17.25L36.3-17.25Q36.39-15.65 36.39-15.65L36.39-15.65 36.24-15.65Q36.24-7.3 36.59-6.45L36.59-6.45 36.59-1.95Q36.8-1.55 36.8-0.9L36.8-0.9Q36.8-0.5 36.52-0.2 36.24 0.1 35.84 0.1L35.84 0.1Q34.8 0.1 34.8-2.6L34.8-2.6 34.89-4.2Q34.99-4.95 34.99-5.85L34.99-5.85Q34.99-8.25 34.84-13.05L34.84-13.05Q34.7-17.85 34.7-20.25L34.7-20.25Q34.7-21.7 34.84-24.7L34.84-24.7Q34.99-27.65 34.99-29.1L34.99-29.1 34.99-29.75Q34.99-32.2 35.89-32.95L35.89-32.95 36.05-32.8 36.55-32.9Q36.74-32.85 36.99-32.6L36.99-32.6Q37.2-32.4 37.2-32.15L37.2-32.15 37.3-31.85Q37.3-31.75 37.32-31.68 37.34-31.6 37.34-31.6L37.34-31.6Q38.14-28.05 40.95-21.65L40.95-21.65Q43.8-14.9 44.5-12.7L44.5-12.7Q45-10.95 45.3-9.6L45.3-9.6Q46.25-5.35 47.55-3.05L47.55-3.05 47.64-3.2Q48.8-14.3 48.8-30.45L48.8-30.45 48.75-31.05Q48.7-31.3 48.7-31.7L48.7-31.7Q48.7-32.75 49.39-32.75L49.39-32.75Q49.84-32.75 50.17-32.3 50.5-31.85 50.5-31.3L50.5-31.3 50.5-27.95 50.25-27.55Q50.25-22.8 49.7-11.95 49.14-1.1 48.64-0.15L48.64-0.15 47.8 0.05 47.8 0.1 47.75 0.05 47.25 0.2ZM58.44 0.25Q58.04 0.25 58.04-1.1L58.04-1.1Q57.84-4.55 57.84-9.8L57.84-9.8Q57.84-13.1 57.89-15.7L57.89-15.7 57.94-21.6Q57.94-25.4 57.74-31L57.74-31Q57.29-31.4 57.29-32L57.29-32Q57.29-32.35 57.72-32.73 58.14-33.1 58.49-33.1L58.49-33.1Q58.89-33.1 59.24-32.7L59.24-32.7 59.79-32.25Q60.09-32.1 60.94-31.95L60.94-31.95Q61.79-31.8 62.14-31.65L62.14-31.65Q62.89-31.25 64.14-30.1L64.14-30.1Q65.34-28.9 65.79-28.6L65.79-28.6 65.74-28.5Q65.79-28.2 66.49-27.2L66.49-27.2Q67.04-26.45 67.39-25.8L67.39-25.8Q68.19-23.5 68.19-19.85L68.19-19.85Q68.19-19.2 68.14-18.7L68.14-18.7 68.14-17.5 68.14-17.1 68.09-16.6Q68.09-15.65 68.39-15.1L68.39-15.1Q68.09-13.5 67.64-9.05L67.64-9.05Q67.49-7.75 67.14-6.3 66.79-4.85 66.29-3.9L66.29-3.9Q64.99-1.45 61.94 0.25L61.94 0.25 58.44 0.25ZM60.19-1.2L61.74-1.2Q62.09-1.6 62.39-1.85L62.39-1.85Q62.39-1.85 62.74-2.1L62.74-2.1 63.14-2.45Q66.64-5.6 66.64-14.45L66.64-14.45 66.64-15.4Q66.59-15.8 66.59-16.25L66.59-16.25 66.39-21.3Q66.24-24.2 64.64-27.3L64.64-27.3Q63.89-28.85 62.62-29.83 61.34-30.8 59.94-30.8L59.94-30.8Q59.34-30.8 59.34-21.55L59.34-21.55Q59.34-10.85 59.94-2.9L59.94-2.9 59.89-1.95 60.09-1.85 60.19-1.2ZM72.84 6.15L71.69 5 71.69 4.9 71.64 4.8Q71.64 4.65 72.49 4.1L72.49 4.1Q73.29 3.5 74.29 2.9L74.29 2.9Q75.39 2.15 75.44 2.05L75.44 2.05Q76.19 1.2 76.62-0.63 77.04-2.45 77.04-4.2L77.04-4.2Q77.04-9.55 76.84-17.5L76.84-17.5Q76.59-24.9 76.59-30.75L76.59-30.75 76.29-31.3Q75.94-31.4 75.09-31.55L75.09-31.55Q74.14-31.6 73.39-31.95L73.39-31.95Q72.64-32.2 72.64-32.6L72.64-32.6Q72.64-32.8 73.04-33 73.44-33.2 73.69-33.2L73.69-33.2Q74.64-33.2 76.72-32.85 78.79-32.5 80.42-32 82.04-31.5 82.04-31.1L82.04-31.1Q82.04-30.8 81.82-30.63 81.59-30.45 81.24-30.45L81.24-30.45Q80.89-30.45 79.89-30.7L79.89-30.7Q79.14-30.95 78.54-30.95L78.54-30.95Q78.09-30.95 78.09-29.95L78.09-29.95Q78.09-27.2 78.34-19.55L78.34-19.55Q78.59-13.8 78.59-9.2L78.59-9.2 78.59-3.7Q78.29-3.05 78.29-1.6L78.29-1.6Q78.29 0.5 77.09 3.15L77.09 3.15Q76.44 4.5 75.42 5.33 74.39 6.15 73.19 6.15L73.19 6.15 72.84 6.15ZM96.74 0.45Q95.99 0.45 95.79 0.28 95.59 0.1 95.49-0.65L95.49-0.65Q95.04-4.3 94.94-5.2L94.94-5.2 94.69-7.2Q93.59-7.45 92.19-7.45L92.19-7.45 90.39-7.55Q89.19-7.7 88.64-7.7L88.64-7.7Q88.34-7.7 88.29-7.45L88.29-7.45Q88.29-7.3 88.24-7.3L88.24-7.3 88.14-6.3Q88.09-5.4 87.59-2.7L87.59-2.7Q87.34-1.35 86.99-0.6L86.99-0.6Q86.59 0.25 86.24 0.25L86.24 0.25Q85.94 0.25 85.59-0.03 85.24-0.3 85.24-0.6L85.24-0.6 85.29-0.75 85.34-0.9Q86.24-4.45 86.84-7.95L86.84-7.95 87.44-11.05 88.04-14.85Q88.04-14.85 88.59-18.15L88.59-18.15Q88.84-19.5 89.49-22.5L89.49-22.5Q90.19-25.9 90.34-27.15L90.34-27.15Q90.39-27.3 90.54-29L90.54-29Q90.74-30.9 90.89-31.8L90.89-31.8Q91.04-33.1 91.19-33.3L91.19-33.3 91.54-33.3Q91.69-33.25 91.89-33.25L91.89-33.25Q92.49-33.25 92.79-33.55L92.79-33.55Q93.14-33.55 93.41-33.33 93.69-33.1 93.69-32.8L93.69-32.8Q93.69-30.4 94.04-27.3L94.04-27.3Q94.24-25.7 94.34-24.65L94.34-24.65Q94.89-18.2 97.14-0.45L97.14-0.45 97.14-0.3Q97.14 0.2 96.74 0.45L96.74 0.45ZM93.94-8.55L94.44-8.55Q93.94-15.75 92.54-29.8L92.54-29.8 89.84-16.45Q88.69-10.7 88.69-9.2L88.69-9.2Q88.69-8.95 90.59-8.75 92.49-8.55 93.94-8.55L93.94-8.55ZM103.44 0.65Q102.74 0.65 102.59-0.5L102.59-0.5Q102.69-0.8 102.69-2.15L102.69-2.15Q102.69-6.75 102.84-15.8L102.84-15.8Q102.99-24.8 102.99-28.8L102.99-28.8 103.09-30.6 103.24-32.1Q103.24-32.45 103.59-32.45L103.59-32.45Q103.84-32.45 104.29-32.3L104.29-32.3 104.44-32.25Q104.44-31.15 104.39-30.25L104.39-30.25 104.39-28.3 104.39-22.85Q104.44-20.45 104.44-17.4L104.44-17.4Q104.39-17.15 104.39-16.3L104.39-16.3 104.34-15.25Q104.29-14.25 104.29-13.2L104.29-13.2Q104.29-12.05 104.34-11.1L104.34-11.1 104.39-8.95 104.24-8.55 104.29-8.6Q104.29-8.45 104.24-8.4L104.24-8.4 104.24-8.2Q104.24-7.8 104.39-7.5L104.39-7.5 104.24-2.7 104.24-2.4Q104.24-1.55 104.29-1.4L104.29-1.4Q104.29-1.15 104.54-1.15L104.54-1.15 107.14-1.05Q108.29-1.05 108.71-1.03 109.14-1 109.24-1L109.24-1 109.39-1Q109.64-1 109.89-0.73 110.14-0.45 110.14-0.15L110.14-0.15Q110.14 0.45 109.34 0.5L109.34 0.5Q108.49 0.45 105.19 0.45L105.19 0.45 105.29 0.5Q104.79 0.5 104.34 0.55L104.34 0.55Q103.94 0.65 103.44 0.65L103.44 0.65ZM117.68 0Q116.53 0 116.33-0.5L116.33-0.5Q116.08-0.5 115.93-0.45L115.93-0.45 115.53-0.45Q114.43-0.45 114.13-0.95L114.13-0.95Q114.13-1.3 114.53-1.55L114.53-1.55 114.78-1.8 116.23-1.8 116.43-2 116.53-2.45 116.58-3.05Q116.58-6.1 116.43-8.5L116.43-8.5 116.33-10.35 116.23-14Q116.23-15.95 116.38-19.85L116.38-19.85 116.48-25.65Q116.48-29.45 116.23-31.45L116.23-31.45Q115.78-31.6 114.73-31.6L114.73-31.6 114.18-31.55Q113.88-31.5 113.53-31.5L113.53-31.5Q112.58-31.5 112.58-32.35L112.58-32.35Q112.58-32.55 113.03-32.75 113.48-32.95 113.78-32.95L113.78-32.95Q115.68-32.95 117.58-32.75L117.58-32.75Q118.73-32.7 119.88-32.3L119.88-32.3Q120.78-32 120.78-31.45L120.78-31.45Q120.78-31.35 120.63-31.05L120.63-31.05 119.48-30.95Q119.13-31.25 118.03-31.25L118.03-31.25 117.78-31.1Q117.93-30.65 117.93-28.45L117.93-28.45Q117.93-25.15 117.88-22.5L117.88-22.5 117.78-16.55Q117.78-14.3 117.98-11.1L117.98-11.1Q118.13-7.45 118.13-5.6L118.13-5.6 118.13-4.95Q118.08-4.6 118.08-4.05L118.08-4.05Q118.08-2.9 118.23-2.65L118.23-2.65 118.18-2.55Q118.18-2.05 119.28-2.05L119.28-2.05Q119.73-2.05 120.03-2.1L120.03-2.1 120.78-2.1Q122.23-2.1 122.23-1.4L122.23-1.4Q122.23-0.95 121.93-0.68 121.63-0.4 121.13-0.4L121.13-0.4Q120.68-0.4 120.33-0.5L120.33-0.5Q119.93-0.55 119.48-0.55L119.48-0.55Q119.18-0.55 118.58-0.3L118.58-0.3Q117.98 0 117.68 0L117.68 0ZM139.58 0.2Q139.18 0.2 139.01-0.1 138.83-0.4 138.68-1L138.68-1Q138.63-1.4 138.48-1.7L138.48-1.7 138.53-1.85Q138.13-4.2 136.83-7.6L136.83-7.6 135.93-10.2Q135.83-10.3 134.98-12.75L134.98-12.75 134.58-13.95Q130.08-27.85 128.93-29L128.93-29Q128.53-27.65 128.53-25.5L128.53-25.5Q128.53-24.35 128.58-23.5L128.58-23.5 128.63-21.55 128.58-20.35Q128.53-19.8 128.53-19.15L128.53-19.15Q128.53-18.05 128.63-17.25L128.63-17.25Q128.73-15.65 128.73-15.65L128.73-15.65 128.58-15.65Q128.58-7.3 128.93-6.45L128.93-6.45 128.93-1.95Q129.13-1.55 129.13-0.9L129.13-0.9Q129.13-0.5 128.86-0.2 128.58 0.1 128.18 0.1L128.18 0.1Q127.13 0.1 127.13-2.6L127.13-2.6 127.23-4.2Q127.33-4.95 127.33-5.85L127.33-5.85Q127.33-8.25 127.18-13.05L127.18-13.05Q127.03-17.85 127.03-20.25L127.03-20.25Q127.03-21.7 127.18-24.7L127.18-24.7Q127.33-27.65 127.33-29.1L127.33-29.1 127.33-29.75Q127.33-32.2 128.23-32.95L128.23-32.95 128.38-32.8 128.88-32.9Q129.08-32.85 129.33-32.6L129.33-32.6Q129.53-32.4 129.53-32.15L129.53-32.15 129.63-31.85Q129.63-31.75 129.66-31.68 129.68-31.6 129.68-31.6L129.68-31.6Q130.48-28.05 133.28-21.65L133.28-21.65Q136.13-14.9 136.83-12.7L136.83-12.7Q137.33-10.95 137.63-9.6L137.63-9.6Q138.58-5.35 139.88-3.05L139.88-3.05 139.98-3.2Q141.13-14.3 141.13-30.45L141.13-30.45 141.08-31.05Q141.03-31.3 141.03-31.7L141.03-31.7Q141.03-32.75 141.73-32.75L141.73-32.75Q142.18-32.75 142.51-32.3 142.83-31.85 142.83-31.3L142.83-31.3 142.83-27.95 142.58-27.55Q142.58-22.8 142.03-11.95 141.48-1.1 140.98-0.15L140.98-0.15 140.13 0.05 140.13 0.1 140.08 0.05 139.58 0.2ZM150.78 0.65Q149.88 0.65 149.78-0.4L149.78-0.4 149.78-1.05Q149.83-1.3 149.83-1.65L149.83-1.65 149.63-1.85Q150.03-2.9 150.03-3.9L150.03-3.9Q150.03-5.05 149.88-7.2L149.88-7.2 149.78-10.5Q149.78-13 149.93-18L149.93-18Q150.13-22.45 150.13-25.55L150.13-25.55 150.03-28.55Q149.93-29.9 149.93-31.55L149.93-31.55Q149.93-32.3 150.28-32.63 150.63-32.95 151.38-32.95L151.38-32.95Q151.88-32.95 152.18-32.65L152.18-32.65Q152.28-32.6 153.63-32.45L153.63-32.45Q154.88-32.3 155.78-32L155.78-32Q156.73-31.7 156.73-31.25L156.73-31.25Q156.73-30.75 155.78-30.25L155.78-30.25Q152.93-31.2 151.73-31.2L151.73-31.2 151.48-30.9Q151.53-30.45 151.53-28.75L151.53-28.75Q151.53-26.6 151.43-24.9L151.43-24.9Q151.38-23.15 151.38-21L151.38-21Q151.38-19.6 152.08-19.6L152.08-19.6 152.88-19.65Q153.28-19.7 153.73-19.7L153.73-19.7Q155.68-19.7 155.68-18.8L155.68-18.8Q155.68-18.25 155.43-17.88 155.18-17.5 154.68-17.5L154.68-17.5Q153.93-17.5 153.53-17.9L153.53-17.9 151.93-18.15 151.68-18.15 151.43-17.9 151.43-17.75Q151.53-16.9 151.53-13.8L151.53-13.8Q151.53-11.85 151.48-10.25L151.48-10.25 151.43-6.7Q151.43-4.75 151.58-2.7L151.58-2.7Q151.63-1.55 152.08-1.18 152.53-0.8 153.73-0.8L153.73-0.8 154.63-0.85Q155.08-0.9 155.63-0.9L155.63-0.9Q157.08-0.9 157.08-0.25L157.08-0.25Q157.08 0.65 154.88 0.65L154.88 0.65 150.78 0.65Z" opacity="1" transform="matrix(1,0,0,1,0,0)" fill="#fbfbf8" class="wordmark-text-0" data-fill-palette-color="primary" id="text-0"></path></svg></g></svg></g><g transform="matrix(1,0,0,1,2.5,136.94078208957606)"><svg viewBox="0 0 390.52000000000004 67.20338513715711" height="67.20338513715711" width="390.52000000000004"><g transform="matrix(1,0,0,1,0,0)"><svg width="390.52000000000004" viewBox="-1.7999999523162842 -38.900001525878906 306.67999267578125 53.05000305175781" height="67.20338513715711" data-palette-color="#fbfbf8"><path d="M15.95-3.4L23.9-34.6 27.9-34.6 18.85 0 10.25 0 1.2-34.6 5.2-34.6 13.15-3.4 15.95-3.4ZM81.14-17.45L81.14-17.45 81.14-4.65Q81.29-2.8 84.04-2.45L84.04-2.45 83.89 0.5Q79.94 0.5 77.94-1.5L77.94-1.5Q73.44 0.5 68.94 0.5L68.94 0.5Q65.49 0.5 63.69-1.45 61.89-3.4 61.89-7.05 61.89-10.7 63.74-12.43 65.59-14.15 69.54-14.55L69.54-14.55 77.39-15.3 77.39-17.45Q77.39-20 76.29-21.1 75.19-22.2 73.29-22.2L73.29-22.2Q69.29-22.2 64.99-21.7L64.99-21.7 63.44-21.55 63.29-24.4Q68.79-25.5 73.04-25.5 77.29-25.5 79.21-23.55 81.14-21.6 81.14-17.45ZM65.74-7.25L65.74-7.25Q65.74-2.65 69.54-2.65L69.54-2.65Q72.94-2.65 76.24-3.8L76.24-3.8 77.39-4.2 77.39-12.45 69.99-11.75Q67.74-11.55 66.74-10.45 65.74-9.35 65.74-7.25ZM124.42-20.3L124.42 0 120.67 0 120.67-25 124.37-25 124.37-23.25Q128.42-25.5 132.12-25.5L132.12-25.5Q137.12-25.5 138.85-22.8 140.57-20.1 140.57-13.2L140.57-13.2 140.57 0 136.87 0 136.87-13.1Q136.87-18.3 135.85-20.23 134.82-22.15 131.47-22.15L131.47-22.15Q129.87-22.15 128.1-21.68 126.32-21.2 125.37-20.75L125.37-20.75 124.42-20.3ZM195.16-35.9L198.86-35.9 198.86 0 195.16 0 195.16-1.7Q191.31 0.5 187.56 0.5L187.56 0.5Q185.56 0.5 184.06 0 182.56-0.5 181.26-1.8L181.26-1.8Q178.56-4.5 178.56-11.78 178.56-19.05 180.98-22.28 183.41-25.5 189.01-25.5L189.01-25.5Q191.91-25.5 195.16-24.85L195.16-24.85 195.16-35.9ZM184.16-4.5Q184.96-3.55 185.86-3.2 186.76-2.85 188.18-2.85 189.61-2.85 191.38-3.33 193.16-3.8 194.16-4.25L194.16-4.25 195.16-4.7 195.16-21.65Q191.96-22.25 189.21-22.25L189.21-22.25Q185.41-22.25 183.91-19.83 182.41-17.4 182.41-12.3L182.41-12.3Q182.41-6.5 184.16-4.5L184.16-4.5ZM238.29-0.65L238.29-0.65 238.29-25 241.99-25 241.99-0.6Q241.99 4 240.34 6.3 238.69 8.6 233.69 11.15L233.69 11.15 232.19 8.25Q236.09 6 237.19 4.42 238.29 2.85 238.29-0.65ZM241.99-30.65L238.29-30.65 238.29-35 241.99-35 241.99-30.65ZM298.98-17.45L298.98-17.45 298.98-4.65Q299.13-2.8 301.88-2.45L301.88-2.45 301.73 0.5Q297.78 0.5 295.78-1.5L295.78-1.5Q291.28 0.5 286.78 0.5L286.78 0.5Q283.33 0.5 281.53-1.45 279.73-3.4 279.73-7.05 279.73-10.7 281.58-12.43 283.43-14.15 287.38-14.55L287.38-14.55 295.23-15.3 295.23-17.45Q295.23-20 294.13-21.1 293.03-22.2 291.13-22.2L291.13-22.2Q287.13-22.2 282.83-21.7L282.83-21.7 281.28-21.55 281.13-24.4Q286.63-25.5 290.88-25.5 295.13-25.5 297.05-23.55 298.98-21.6 298.98-17.45ZM283.58-7.25L283.58-7.25Q283.58-2.65 287.38-2.65L287.38-2.65Q290.78-2.65 294.08-3.8L294.08-3.8 295.23-4.2 295.23-12.45 287.83-11.75Q285.58-11.55 284.58-10.45 283.58-9.35 283.58-7.25Z" opacity="1" transform="matrix(1,0,0,1,0,0)" fill="#fbfbf8" class="slogan-text-1" data-fill-palette-color="secondary" id="text-1"></path></svg></g></svg></g></svg></g></svg></g></svg></g></svg></g></svg></g></svg></g><defs></defs></svg><rect width="395.52" height="247.2" fill="none" stroke="none" visibility="hidden"></rect></g></svg></g></svg>